Coordinates
version=1
nRows=38
nColumns=38
inDegrees=no

Units are S.I. units (second, meters, Newtons, ...)
If the header above contains a line with 'inDegrees', this indicates whether rotational values are in degrees (yes) or radians (no).

endheader
time	pelvis_tilt	pelvis_list	pelvis_rotation	pelvis_tx	pelvis_ty	pelvis_tz	hip_flexion_r	hip_adduction_r	hip_rotation_r	knee_angle_r	ankle_angle_r	subtalar_angle_r	mtp_angle_r	hip_flexion_l	hip_adduction_l	hip_rotation_l	knee_angle_l	ankle_angle_l	subtalar_angle_l	mtp_angle_l	lumbar_extension	lumbar_bending	lumbar_rotation	arm_flex_r	arm_add_r	arm_rot_r	elbow_flex_r	pro_sup_r	wrist_flex_r	wrist_dev_r	arm_flex_l	arm_add_l	arm_rot_l	elbow_flex_l	pro_sup_l	wrist_flex_l	wrist_dev_l
0.89	0.0534364	1.44117	1.56756	0.679604	1.70442	1.02366	0.755929	-0.040863	-0.00269063	1.02566	-0.00369035	0	0	0.15689	-0.0814597	-0.21631	0.562484	0.192998	0	0	0.110957	0.0053207	-0.149581	-0.185045	-0.301677	0.913705	0.397347	0.916466	0	0	0.0328747	-0.380897	0.463852	0.536648	1.41141	0	0
0.9	0.0562231	1.43292	1.56761	0.679097	1.71508	1.022	0.764734	-0.0449265	-0.00505578	0.980731	0.0189528	0	0	0.152287	-0.0809727	-0.212211	0.558485	0.197509	0	0	0.120666	0.00948622	-0.157517	-0.19107	-0.296934	0.92792	0.38198	0.905301	0	0	0.0330319	-0.385579	0.455558	0.548788	1.41387	0	0
0.91	0.0567143	1.42331	1.56991	0.678628	1.72578	1.02007	0.773286	-0.0491899	-0.0078128	0.934138	0.0426879	0	0	0.149683	-0.0800895	-0.207313	0.555259	0.20197	0	0	0.131979	0.0133662	-0.165165	-0.197197	-0.292626	0.943312	0.367153	0.894355	0	0	0.0329225	-0.389854	0.448128	0.559833	1.41586	0	0
0.92	0.0559692	1.41299	1.57355	0.678194	1.73656	1.01794	0.781032	-0.0532262	-0.011506	0.885586	0.0668605	0	0	0.148152	-0.0790648	-0.201957	0.552546	0.206179	0	0	0.144136	0.0170736	-0.172242	-0.204446	-0.289007	0.954493	0.354332	0.883587	0	0	0.0332544	-0.393645	0.442539	0.569334	1.4174	0	0
0.93	0.0539813	1.40255	1.57852	0.677791	1.7474	1.01569	0.787963	-0.0567218	-0.0159759	0.835786	0.091389	0	0	0.146904	-0.0779268	-0.196636	0.550361	0.210448	0	0	0.15645	0.0204883	-0.179236	-0.211607	-0.285542	0.965226	0.342049	0.8713	0	0	0.033638	-0.397155	0.437998	0.57753	1.42049	0	0
0.94	0.0522543	1.39259	1.58327	0.677449	1.75828	1.01342	0.793737	-0.0592922	-0.0209869	0.785341	0.113275	0	0	0.145237	-0.0771088	-0.192427	0.548743	0.214424	0	0	0.168051	0.0237763	-0.185995	-0.218615	-0.282806	0.974396	0.331309	0.85635	0	0	0.0342398	-0.400069	0.433567	0.58443	1.42342	0	0
0.95	0.0527688	1.38245	1.58676	0.677139	1.76924	1.01117	0.798322	-0.0612532	-0.026212	0.734449	0.131395	0	0	0.144195	-0.0769103	-0.187973	0.547862	0.217706	0	0	0.180102	0.0270984	-0.193652	-0.224838	-0.280285	0.985967	0.320383	0.842862	0	0	0.035204	-0.40232	0.43017	0.588848	1.42675	0	0
0.96	0.0566436	1.37338	1.58796	0.676818	1.78033	1.009	0.800598	-0.0629821	-0.0311493	0.685749	0.146285	0	0	0.142416	-0.0777023	-0.183585	0.547684	0.220093	0	0	0.191204	0.0308661	-0.202578	-0.230149	-0.2778	0.999489	0.309173	0.830158	0	0	0.0364724	-0.403874	0.427564	0.590904	1.43037	0	0
0.97	0.0650642	1.3662	1.58541	0.67653	1.79156	1.00703	0.799293	-0.0639314	-0.033199	0.640079	0.158941	0	0	0.139152	-0.079936	-0.179521	0.548423	0.221571	0	0	0.200329	0.0354862	-0.212508	-0.234437	-0.275369	1.01436	0.297913	0.817358	0	0	0.0382327	-0.404691	0.425703	0.590564	1.43462	0	0
0.98	0.0788968	1.36127	1.5786	0.676273	1.80293	1.00527	0.794287	-0.0642158	-0.0317159	0.599361	0.169621	0	0	0.134321	-0.0838598	-0.175339	0.550521	0.222489	0	0	0.206822	0.0411208	-0.223546	-0.237892	-0.273514	1.02821	0.287803	0.802599	0	0	0.0404605	-0.404713	0.42392	0.588374	1.43856	0	0
0.99	0.0984366	1.35866	1.5673	0.67602	1.81445	1.00375	0.786031	-0.0639024	-0.0281062	0.56462	0.176697	0	0	0.127812	-0.0894524	-0.170728	0.553875	0.222892	0	0	0.210389	0.0481603	-0.235325	-0.240543	-0.272333	1.04137	0.278876	0.786839	0	0	0.0436607	-0.403935	0.423044	0.584437	1.44288	0	0
1	0.120844	1.35769	1.5535	0.675812	1.82618	1.0024	0.777011	-0.063108	-0.0247406	0.538917	0.180064	0	0	0.119945	-0.0962968	-0.167028	0.558189	0.222172	0	0	0.212173	0.0560406	-0.246953	-0.242847	-0.271384	1.05354	0.27059	0.775382	0	0	0.0469524	-0.402351	0.42277	0.579846	1.44527	0	0
1.01	0.144266	1.35755	1.53831	0.67571	1.83815	1.0012	0.768212	-0.0614103	-0.0221156	0.521096	0.178631	0	0	0.111348	-0.103915	-0.164226	0.563094	0.220059	0	0	0.213462	0.064105	-0.258241	-0.24464	-0.27073	1.06612	0.262621	0.763442	0	0	0.0494095	-0.400318	0.422546	0.574415	1.44717	0	0
1.02	0.166082	1.35732	1.52447	0.675737	1.85032	1.00003	0.762226	-0.0597246	-0.0220249	0.514098	0.174195	0	0	0.103359	-0.111655	-0.161585	0.56911	0.216917	0	0	0.215068	0.0717985	-0.268858	-0.246441	-0.270487	1.07758	0.255749	0.749866	0	0	0.0508279	-0.398137	0.422385	0.568969	1.44888	0	0
1.03	0.185028	1.35703	1.51319	0.675927	1.86274	0.998887	0.759063	-0.0580477	-0.0246162	0.518719	0.170622	0	0	0.0960174	-0.119115	-0.1585	0.576207	0.212462	0	0	0.217323	0.0786898	-0.278716	-0.248338	-0.270268	1.09007	0.249528	0.736681	0	0	0.0508337	-0.395915	0.422159	0.563938	1.45005	0	0
1.04	0.201134	1.35657	1.50377	0.676289	1.87553	0.997765	0.757705	-0.0557576	-0.0283893	0.532511	0.168981	0	0	0.0892359	-0.126365	-0.15605	0.584238	0.206475	0	0	0.220679	0.0847392	-0.286907	-0.250453	-0.270252	1.10543	0.243707	0.725725	0	0	0.0491638	-0.393688	0.422137	0.559787	1.45086	0	0
1.05	0.215698	1.35594	1.49558	0.676869	1.88863	0.996652	0.757174	-0.0527593	-0.0319554	0.552726	0.166281	0	0	0.0835705	-0.133703	-0.152825	0.593956	0.199144	0	0	0.22474	0.0900001	-0.293897	-0.252803	-0.270295	1.12085	0.238491	0.714923	0	0	0.0458416	-0.391937	0.422217	0.557297	1.45104	0	0
1.06	0.229838	1.3555	1.48743	0.6776	1.9021	0.995535	0.755919	-0.0487737	-0.0356963	0.577095	0.162007	0	0	0.0784068	-0.141256	-0.14908	0.605161	0.189793	0	0	0.229113	0.095027	-0.299751	-0.255369	-0.270678	1.13865	0.234244	0.701086	0	0	0.0406222	-0.390505	0.422368	0.556676	1.45055	0	0
1.07	0.245736	1.3553	1.47696	0.678464	1.91592	0.994502	0.751967	-0.0433506	-0.0390667	0.598933	0.153435	0	0	0.0736466	-0.149299	-0.14436	0.617822	0.178646	0	0	0.233403	0.100631	-0.304258	-0.258214	-0.271519	1.15488	0.231229	0.687307	0	0	0.0340923	-0.388613	0.422075	0.557013	1.44898	0	0
1.08	0.266348	1.35473	1.4607	0.679453	1.92985	0.993678	0.747558	-0.0375026	-0.0434758	0.615303	0.139966	0	0	0.0705269	-0.158386	-0.138614	0.633055	0.165619	0	0	0.237975	0.107678	-0.307688	-0.260465	-0.272999	1.16916	0.228917	0.673165	0	0	0.0269206	-0.3856	0.421052	0.556697	1.44697	0	0
1.09	0.295101	1.35398	1.43445	0.680556	1.94369	0.993287	0.743975	-0.0312257	-0.0484605	0.62603	0.128684	0	0	0.0692341	-0.169141	-0.132434	0.651782	0.151853	0	0	0.241461	0.117879	-0.309236	-0.261358	-0.275298	1.17841	0.226998	0.660817	0	0	0.0208361	-0.380274	0.419246	0.553525	1.44545	0	0
1.1	0.332592	1.35397	1.39736	0.681745	1.95744	0.993418	0.740683	-0.0229245	-0.0549636	0.63734	0.11832	0	0	0.0690076	-0.181684	-0.126983	0.674875	0.135391	0	0	0.242695	0.131225	-0.308863	-0.260332	-0.278274	1.18785	0.225043	0.649339	0	0	0.0156652	-0.372889	0.416856	0.54797	1.44447	0	0
1.11	0.374984	1.35475	1.35257	0.683134	1.97117	0.994004	0.736777	-0.0113825	-0.0629374	0.651563	0.09962	0	0	0.0696483	-0.195079	-0.123041	0.702283	0.114952	0	0	0.241778	0.14644	-0.305939	-0.257272	-0.281659	1.20125	0.222957	0.637503	0	0	0.0102321	-0.364339	0.413247	0.541663	1.44405	0	0
1.12	0.414213	1.35531	1.30768	0.684774	1.98496	0.994802	0.732934	0.00203804	-0.0692987	0.667925	0.0800964	0	0	0.07219	-0.207245	-0.120637	0.733522	0.0924244	0	0	0.240209	0.161517	-0.299579	-0.253218	-0.285147	1.21531	0.221071	0.627462	0	0	0.00333131	-0.355731	0.408505	0.536737	1.44373	0	0
1.13	0.444823	1.35539	1.26897	0.686628	1.99877	0.995671	0.729468	0.0152062	-0.0716624	0.68421	0.0658957	0	0	0.077917	-0.216873	-0.118811	0.768382	0.0665898	0	0	0.238693	0.17466	-0.290345	-0.24875	-0.288915	1.22483	0.22049	0.615141	0	0	-0.00564533	-0.34796	0.402607	0.534534	1.44307	0	0
1.14	0.464193	1.35463	1.24224	0.688538	2.01223	0.996521	0.727039	0.0256037	-0.0702149	0.699196	0.0542352	0	0	0.0897123	-0.222597	-0.11119	0.807534	0.0373045	0	0	0.238456	0.184112	-0.28148	-0.242839	-0.29213	1.23339	0.220173	0.604561	0	0	-0.0163327	-0.341745	0.3965	0.53474	1.44061	0	0
1.15	0.478735	1.35401	1.22112	0.690505	2.02547	0.997296	0.723625	0.0348423	-0.0683731	0.713273	0.0454304	0	0	0.105568	-0.226157	-0.100093	0.849952	0.00473458	0	0	0.237741	0.191744	-0.272397	-0.235826	-0.294607	1.24316	0.219927	0.597844	0	0	-0.028067	-0.33664	0.391014	0.537562	1.43416	0	0
1.16	0.491314	1.35325	1.20318	0.692508	2.03848	0.997973	0.71941	0.0431585	-0.0711077	0.726448	0.0418042	0	0	0.124958	-0.228352	-0.0857703	0.894489	-0.0286448	0	0	0.236729	0.197954	-0.263757	-0.227817	-0.296694	1.25067	0.220305	0.591883	0	0	-0.0406547	-0.332653	0.3866	0.542882	1.4237	0	0
1.17	0.506333	1.35277	1.18417	0.694445	2.05122	0.998612	0.713687	0.0504942	-0.0802841	0.737534	0.0408231	0	0	0.146612	-0.230057	-0.0687108	0.940949	-0.0586342	0	0	0.234564	0.203901	-0.25539	-0.218651	-0.298503	1.25753	0.221125	0.588464	0	0	-0.0519733	-0.329594	0.38517	0.548557	1.41443	0	0
1.18	0.522787	1.35231	1.16485	0.696345	2.06363	0.99922	0.706503	0.0574564	-0.0919548	0.745383	0.0399536	0	0	0.170467	-0.231135	-0.0494877	0.989169	-0.084186	0	0	0.231379	0.209327	-0.247467	-0.208204	-0.300394	1.25923	0.223064	0.583821	0	0	-0.0622952	-0.327467	0.385916	0.554427	1.40723	0	0
1.19	0.53864	1.35175	1.14687	0.69814	2.07569	0.99981	0.698012	0.064572	-0.101879	0.750244	0.0398493	0	0	0.19642	-0.231133	-0.0288494	1.03849	-0.107006	0	0	0.227598	0.213937	-0.239922	-0.196562	-0.302761	1.25451	0.226482	0.577186	0	0	-0.0718374	-0.325581	0.38757	0.559904	1.40212	0	0
1.2	0.552541	1.35151	1.13113	0.699809	2.08745	1.00048	0.688183	0.0719987	-0.107803	0.753458	0.0426734	0	0	0.22361	-0.229375	-0.00710047	1.08744	-0.131529	0	0	0.223015	0.217788	-0.231811	-0.183698	-0.305518	1.24824	0.230758	0.573171	0	0	-0.07983	-0.323216	0.390116	0.563995	1.39774	0	0
1.21	0.564719	1.35274	1.11661	0.701386	2.09902	1.00137	0.676054	0.0794823	-0.108697	0.756281	0.0487348	0	0	0.250142	-0.225537	0.0140026	1.13453	-0.158793	0	0	0.216828	0.220491	-0.222991	-0.169676	-0.308378	1.24046	0.235467	0.571232	0	0	-0.0863859	-0.320399	0.394149	0.565699	1.39485	0	0
1.22	0.575806	1.35609	1.10265	0.702899	2.11052	1.00258	0.660531	0.0863799	-0.104988	0.758339	0.0584741	0	0	0.274941	-0.220337	0.0322387	1.17787	-0.192985	0	0	0.208502	0.221774	-0.213138	-0.155378	-0.31173	1.22649	0.241787	0.570339	0	0	-0.0913568	-0.317234	0.400304	0.564778	1.39193	0	0
1.23	0.580302	1.35985	1.0958	0.704277	2.12183	1.00391	0.643898	0.091555	-0.0976678	0.75886	0.0695237	0	0	0.301195	-0.215365	0.0435604	1.21751	-0.230273	0	0	0.200713	0.220856	-0.203601	-0.14095	-0.315442	1.20793	0.249366	0.570256	0	0	-0.0953667	-0.314061	0.408424	0.561582	1.39102	0	0
1.24	0.57988	1.36437	1.09348	0.705566	2.13311	1.00537	0.625824	0.0956462	-0.0884945	0.757804	0.0804923	0	0	0.326616	-0.209238	0.0516584	1.2527	-0.261719	0	0	0.192926	0.218277	-0.193599	-0.126206	-0.319459	1.19002	0.257533	0.570996	0	0	-0.0993213	-0.310703	0.416373	0.557344	1.39199	0	0
1.25	0.575672	1.36913	1.09431	0.706848	2.14438	1.00687	0.607653	0.099332	-0.0788273	0.755809	0.0911687	0	0	0.3513	-0.202644	0.0570282	1.28339	-0.28798	0	0	0.18554	0.21451	-0.182491	-0.112172	-0.324425	1.16934	0.267967	0.573996	0	0	-0.103171	-0.307368	0.424497	0.552491	1.3939	0	0
1.26	0.567061	1.37341	1.0989	0.708203	2.15552	1.00831	0.59103	0.103049	-0.0690743	0.753734	0.0990466	0	0	0.376101	-0.196377	0.0596648	1.31043	-0.302394	0	0	0.179176	0.209601	-0.171608	-0.0975464	-0.329767	1.15139	0.279362	0.578067	0	0	-0.10815	-0.304653	0.43184	0.548518	1.39679	0	0
